Filename:
You Again R5 CAM AUDIO XViD - IMAGiNE
 
http://www.imdb.com/title/tt1414382/

DETAILS:

Video
ID                               : 0
Format                           : MPEG-4 Visual
Format profile                   : Advanced Simple@L5
Format settings, BVOP            : Yes
Format settings, QPel            : No
Format settings, GMC             : No warppoints
Format settings, Matrix          : Default (H.263)
Muxing mode                      : Packed bitstream
Codec ID                         : XVID
Codec ID/Hint                    : XviD
Duration                         : 1h 41mn
Bit rate                         : 1 798 Kbps
Width                            : 720 pixels
Height                           : 304 pixels
Display aspect ratio             : 2.35:1
Frame rate                       : 25.000 fps
Color space                      : YUV
Chroma subsampling               : 4:2:0
Bit depth                        : 8 bits
Scan type                        : Progressive
Bits/(Pixel*Frame)               : 0.329
Stream size                      : 1.27 GiB (93%)
Writing library                  : XviD 1.1.2 (UTC 2006-11-01)

Audio
ID                               : 1
Format                           : MPEG Audio
Format version                   : Version 1
Format profile                   : Layer 3
Codec ID                         : 55
Codec ID/Hint                    : MP3
Duration                         : 1h 41mn
Bit rate mode                    : Constant
Bit rate                         : 128 Kbps
Channel(s)                       : 2 channels
Sampling rate                    : 44.1 KHz
Stream size                      : 92.6 MiB (7%)
Alignment                        : Split accross interleaves
Interleave, duration             : 40 ms (1.00 video frame)
Interleave, preload duration     : 500 ms


SOURCES:

VIDEO:You again russian dvd9 .....Thanks
AUDIO:You.Again.2010.R5.READNFO.XviD-YeFsTe ......Thanks

NOTES:

IMAGiNE bringing you another release..........You again

Right running late with this one,oh well ....sh*t happens i guess.
Anyway for this we ripped the dvd9 which was pretty good ...just needed a few tweaks on the colours and brightness mainly.
The audio we demuxed YeFsTe's audio and then we dropped it into AA and tried to increase the vocals and give it some live.
But be warned it's still cam audio and nothing special.

Anyway enjoy folks as i think there will be no line for this so ........
